<mxfile host="app.diagrams.net" modified="2024-07-31T12:40:36.127Z" agent="Mozilla/5.0 (Windows NT 10.0; Win64; x64) AppleWebKit/537.36 (KHTML, like Gecko) Chrome/127.0.0.0 Safari/537.36 Edg/127.0.0.0" version="24.7.2" etag="811ZPJl7otBkMox-LCm-" type="github">
  <diagram name="Page-1" id="Zb9LuFddazKQfR7Ulha_">
    <mxGraphModel>
      <root>
        <mxCell id="0" />
        <mxCell id="1" parent="0" />
        <mxCell id="2" value="API" style="whiteSpace=wrap;strokeWidth=2;" vertex="1" parent="1">
          <mxGeometry x="265" width="39" height="34" as="geometry" />
        </mxCell>
        <mxCell id="3" value="Endpoint 1" style="whiteSpace=wrap;strokeWidth=2;" vertex="1" parent="1">
          <mxGeometry x="238" y="103" width="92" height="34" as="geometry" />
        </mxCell>
        <mxCell id="4" value="Endpoint 2" style="whiteSpace=wrap;strokeWidth=2;" vertex="1" parent="1">
          <mxGeometry x="32" y="103" width="92" height="34" as="geometry" />
        </mxCell>
        <mxCell id="5" value="Endpoint 3" style="whiteSpace=wrap;strokeWidth=2;" vertex="1" parent="1">
          <mxGeometry x="413" y="103" width="92" height="34" as="geometry" />
        </mxCell>
        <mxCell id="6" value="Endpoint 4" style="whiteSpace=wrap;strokeWidth=2;" vertex="1" parent="1">
          <mxGeometry x="412" y="206" width="92" height="34" as="geometry" />
        </mxCell>
        <mxCell id="7" value="Endpoint 5" style="whiteSpace=wrap;strokeWidth=2;" vertex="1" parent="1">
          <mxGeometry x="413" y="309" width="92" height="34" as="geometry" />
        </mxCell>
        <mxCell id="8" value="External Endpoint 1" style="whiteSpace=wrap;strokeWidth=2;" vertex="1" parent="1">
          <mxGeometry x="206" y="206" width="156" height="34" as="geometry" />
        </mxCell>
        <mxCell id="9" value="External Endpoint 2" style="whiteSpace=wrap;strokeWidth=2;" vertex="1" parent="1">
          <mxGeometry y="206" width="156" height="34" as="geometry" />
        </mxCell>
        <mxCell id="10" value="External Endpoint 3" style="whiteSpace=wrap;strokeWidth=2;" vertex="1" parent="1">
          <mxGeometry y="309" width="156" height="34" as="geometry" />
        </mxCell>
        <mxCell id="11" value="Calls" style="curved=1;startArrow=none;endArrow=block;exitX=0.49;exitY=1;entryX=0.5;entryY=0;" edge="1" parent="1" source="2" target="3">
          <mxGeometry relative="1" as="geometry">
            <Array as="points" />
          </mxGeometry>
        </mxCell>
        <mxCell id="12" value="Calls" style="curved=1;startArrow=none;endArrow=block;exitX=0;exitY=0.64;entryX=0.5;entryY=0;" edge="1" parent="1" source="2" target="4">
          <mxGeometry relative="1" as="geometry">
            <Array as="points">
              <mxPoint x="78" y="69" />
            </Array>
          </mxGeometry>
        </mxCell>
        <mxCell id="13" value="Calls" style="curved=1;startArrow=none;endArrow=block;exitX=0.99;exitY=0.67;entryX=0.49;entryY=0;" edge="1" parent="1" source="2" target="5">
          <mxGeometry relative="1" as="geometry">
            <Array as="points">
              <mxPoint x="458" y="69" />
            </Array>
          </mxGeometry>
        </mxCell>
        <mxCell id="14" value="Calls" style="curved=1;startArrow=none;endArrow=block;exitX=0.49;exitY=1;entryX=0.5;entryY=0;" edge="1" parent="1" source="5" target="6">
          <mxGeometry relative="1" as="geometry">
            <Array as="points" />
          </mxGeometry>
        </mxCell>
        <mxCell id="15" value="Calls" style="curved=1;startArrow=none;endArrow=block;exitX=0.5;exitY=1;entryX=0.49;entryY=0;" edge="1" parent="1" source="6" target="7">
          <mxGeometry relative="1" as="geometry">
            <Array as="points" />
          </mxGeometry>
        </mxCell>
        <mxCell id="16" value="Calls" style="curved=1;startArrow=none;endArrow=block;exitX=0.5;exitY=1;entryX=0.5;entryY=0;" edge="1" parent="1" source="3" target="8">
          <mxGeometry relative="1" as="geometry">
            <Array as="points" />
          </mxGeometry>
        </mxCell>
        <mxCell id="17" value="Calls" style="curved=1;startArrow=none;endArrow=block;exitX=0.5;exitY=1;entryX=0.5;entryY=0;" edge="1" parent="1" source="4" target="9">
          <mxGeometry relative="1" as="geometry">
            <Array as="points" />
          </mxGeometry>
        </mxCell>
        <mxCell id="18" value="Calls" style="curved=1;startArrow=none;endArrow=block;exitX=0.5;exitY=1;entryX=0.5;entryY=0;" edge="1" parent="1" source="9" target="10">
          <mxGeometry relative="1" as="geometry">
            <Array as="points" />
          </mxGeometry>
        </mxCell>
      </root>
    </mxGraphModel>
  </diagram>
</mxfile>
